<svg xmlns="http://www.w3.org/2000/svg" width="24" height="24" viewBox="84 119 46 61">
  <path style="fill:#b3b3b3;stroke-width:1.59791" d="m 89.410936,177.83121 c -2.246068,-1.16913 -4.004502,-3.3649 -4.687847,-5.85375 -0.238731,-0.8695 -0.400404,-10.04979 -0.395036,-22.43145 0.0088,-20.16257 0.04118,-21.03349 0.853004,-22.90399 1.04984,-2.41888 2.182641,-3.70797 4.308722,-4.90314 1.609982,-0.90506 2.139666,-0.93368 19.617051,-1.05974 19.1998,-0.13848 20.01661,-0.0616 20.75009,1.95356 0.21441,0.5891 0.37886,12.53778 0.37886,27.52846 0,26.1425 -0.011,26.5024 -0.85736,27.62609 l -0.85735,1.13852 H 110.0174 91.513714 Z m 34.826714,-8.41158 v -3.24073 l -15.51245,-0.11448 c -10.583236,-0.0781 -15.862633,0.0366 -16.614527,0.36113 -2.3074,0.99575 -2.443968,4.80643 -0.212876,5.93993 0.595414,0.30249 6.2362,0.43023 16.620573,0.37637 l 15.71928,-0.0815 z m -0.30527,-9.71853 c 0.41041,-0.15449 0.49889,-3.68785 0.41366,-16.51981 l -0.10835,-16.32322 H 108.21925 92.200858 l -0.941874,0.98376 c -0.940733,0.98256 -0.942018,1.00273 -1.059929,16.63574 l -0.118057,15.65198 16.664662,-0.11595 c 9.16556,-0.0639 16.89958,-0.2044 17.18672,-0.31252 z"/>
</svg>