<svg xmlns="http://www.w3.org/2000/svg" width="24" height="24" viewBox="89 131 25 34">
  <path style="fill:#999999" d="m 93.813921,162.94351 c -1.699668,-0.8514 -2.864781,-2.20842 -3.380622,-3.93744 -0.542598,-1.81871 -0.552687,-21.72013 -0.01178,-23.23585 0.487884,-1.36714 1.576997,-2.72879 2.864849,-3.58175 l 1.082864,-0.71719 5.949948,-0.0805 c 3.94882,-0.0534 6.18928,0.0186 6.66155,0.21423 0.39138,0.16211 2.50328,2.10335 4.69311,4.31386 3.15557,3.18537 4.04162,4.23866 4.27125,5.07745 0.36677,1.33976 0.39221,16.29987 0.0299,17.60392 -0.45105,1.62359 -1.73061,3.33574 -3.09016,4.13487 l -1.2773,0.75079 -8.20208,0.0768 -8.202081,0.0768 z m 16.983729,-3.33489 c 1.51603,-0.69075 1.59632,-1.08708 1.68603,-8.32221 l 0.0824,-6.64321 -1.75022,-0.14049 c -4.4168,-0.35454 -7.45354,-3.33444 -7.95479,-7.80591 l -0.18537,-1.65365 h -3.478831 c -5.688924,0 -5.448648,-0.54626 -5.448648,12.38744 0,6.57509 0.09759,10.03855 0.29915,10.61674 0.164532,0.47198 0.670548,1.08461 1.124479,1.36141 0.756655,0.46139 1.413204,0.50335 7.89048,0.50426 4.77758,6.6e-4 7.28215,-0.0979 7.73535,-0.30438 z m -13.754191,-2.9899 c -0.793391,-0.79339 -0.821199,-1.44209 -0.10107,-2.3576 l 0.54837,-0.69714 h 5.507741 c 4.95838,0 5.56783,0.0487 6.11031,0.48794 0.81924,0.66338 0.81924,2.06491 0,2.7283 -0.54167,0.43861 -1.14909,0.48793 -6.00925,0.48793 -5.387641,0 -5.408961,-0.002 -6.056101,-0.64943 z m 0,-6.35 c -0.793391,-0.79339 -0.821199,-1.44209 -0.10107,-2.3576 l 0.54837,-0.69714 h 5.628331 c 5.30434,0 5.65608,0.0307 6.11031,0.53259 0.68274,0.75441 0.62311,2.08143 -0.12059,2.68365 -0.54167,0.43861 -1.14909,0.48793 -6.00925,0.48793 -5.387641,0 -5.408961,-0.002 -6.056101,-0.64943 z m 0.0305,-6.31953 c -0.823112,-0.82311 -0.85841,-1.46399 -0.13153,-2.38807 0.48829,-0.62075 0.73022,-0.69714 2.20795,-0.69714 1.897251,0 2.535351,0.44201 2.535351,1.75621 0,1.3311 -0.53089,1.76289 -2.327261,1.89283 -1.45037,0.10491 -1.66997,0.0507 -2.28451,-0.56383 z m 12.014261,-5.34365 c -1.82292,-1.83538 -2.25871,-2.1594 -2.32637,-1.72968 -0.20544,1.30481 1.36693,3.213 3.07076,3.72661 1.52689,0.46027 1.42521,0.1875 -0.74439,-1.99693 z"/>
</svg>