<svg xmlns="http://www.w3.org/2000/svg" width="24" height="24" viewBox="85 117 35 37">
  <path style="fill:#b3b3b3" d="m 87.412797,151.39858 -0.649432,-0.64943 v -6.06176 c 0,-5.73189 0.02984,-6.0997 0.548371,-6.7589 l 0.54837,-0.69714 h 6.330796 c 5.978018,0 6.360278,0.0295 6.859958,0.52917 0.49977,0.49976 0.52917,0.88194 0.52917,6.87916 0,5.99722 -0.0294,6.3794 -0.52917,6.87917 -0.4992,0.4992 -0.88194,0.52917 -6.758896,0.52917 h -6.229735 z m 10.463068,-6.7589 v -3.70416 h -3.704166 -3.704167 v 3.70416 3.70417 h 3.704167 3.704166 z m 7.202615,6.99646 c -0.58087,-0.40686 -0.58804,-0.49208 -0.58804,-6.99646 0,-6.50438 0.007,-6.58959 0.58804,-6.99645 0.49193,-0.34456 1.60953,-0.41188 6.83816,-0.41188 6.01801,0 6.26884,0.0207 6.75415,0.55694 0.46616,0.5151 0.50403,1.03374 0.50403,6.90255 v 6.3456 l -0.62463,0.50579 c -0.57482,0.46546 -1.11327,0.50579 -6.75415,0.50579 -5.11947,0 -6.22642,-0.0679 -6.71756,-0.41188 z m 10.52446,-6.99646 v -3.70416 h -3.83646 -3.83645 v 3.70416 3.70417 h 3.83645 3.83646 z M 87.905141,134.31909 c -1.090116,-0.43922 -1.172969,-1.01495 -1.089168,-7.5684 0.07433,-5.81261 0.11421,-6.25674 0.593275,-6.60668 0.409729,-0.29929 1.805957,-0.37516 6.904305,-0.37516 5.855197,0 6.427407,0.0405 6.828587,0.48385 0.38196,0.42206 0.43789,1.29823 0.43789,6.85997 v 6.37611 l -0.69714,0.54837 c -0.65918,0.5185 -1.015805,0.54745 -6.548435,0.5316 -3.218214,-0.009 -6.111405,-0.12158 -6.429314,-0.24966 z m 9.970724,-7.28166 v -3.84393 l -3.638021,0.0736 -3.63802,0.0736 -0.07341,3.77031 -0.07341,3.77031 h 3.711431 3.711431 z m 7.680385,7.26066 c -0.3597,-0.14746 -0.74483,-0.411 -0.85585,-0.58565 -0.11102,-0.17465 -0.20368,-3.18636 -0.20591,-6.69269 -0.004,-5.84311 0.0363,-6.41168 0.47981,-6.81302 0.42205,-0.38195 1.29824,-0.43788 6.86027,-0.43788 6.86122,0 7.00565,0.0279 7.3546,1.4182 0.0811,0.32309 0.11104,3.22779 0.0665,6.45489 -0.0718,5.21131 -0.13367,5.92022 -0.55284,6.33936 -0.42155,0.42153 -1.11373,0.47796 -6.48229,0.5284 -3.59128,0.0337 -6.27356,-0.0514 -6.66433,-0.21161 z m 9.98781,-7.18705 -0.0734,-3.77031 h -3.70417 -3.70416 l -0.0744,3.42559 c -0.0409,1.88407 -0.0149,3.58071 0.0578,3.77031 0.10001,0.26062 1.03978,0.34472 3.85202,0.34472 h 3.71973 z"/>
</svg>