<svg xmlns="http://www.w3.org/2000/svg" width="24" height="24" viewBox="84 134 40 30">
  <path style="fill:#b3b3b3" d="m 87.841665,162.20175 c -2.121362,-0.87746 -2.248958,-1.61437 -2.248958,-12.98862 0,-11.19463 0.0634,-11.66442 1.711571,-12.68305 1.943841,-1.20136 34.115392,-0.75287 35.361222,0.49296 2.0002,2.0002 1.48312,24.90196 -0.56224,24.90196 -0.12072,0 -0.46722,-0.74414 -0.77,-1.65365 -0.42721,-1.28328 -1.10289,-2.32535 -3.0169,-4.65279 -3.52451,-4.2858 -3.13311,-4.11513 -9.83367,-4.28826 -7.15635,-0.18491 -7.58243,-0.35398 -11.905263,-4.72395 -2.935712,-2.96773 -3.664041,-3.39152 -4.368967,-2.54213 -0.882268,1.06306 4.165641,7.38705 7.93502,9.94094 2.83108,1.91816 2.6797,1.61323 3.04527,6.1339 l 0.18722,2.31511 -7.502571,-0.0168 c -4.126412,-0.009 -7.740692,-0.11526 -8.031734,-0.23564 z m 24.146785,-12.62134 c 2.91882,-2.16218 2.45513,-6.37814 -0.8399,-7.63652 -4.11459,-1.57138 -7.98807,3.26261 -5.23554,6.5338 1.59769,1.89875 4.3311,2.39488 6.07544,1.10272 z m 3.34157,12.45524 c 0.0883,-0.23018 0.16243,-0.97432 0.16465,-1.65364 0.006,-1.89275 0.32386,-2.18842 1.32286,-1.23131 0.65171,0.62438 1.84809,2.69904 1.84809,3.20481 0,0.0543 -0.78664,0.0987 -1.7481,0.0987 -1.48533,0 -1.72396,-0.0629 -1.5875,-0.41852 z"/>
</svg>