<svg xmlns="http://www.w3.org/2000/svg" width="24" height="24" viewBox="85 129 32 37">
  <path style="fill:#999999" d="m 99.582342,163.83307 c -1.01864,-0.21938 -2.975145,-0.94799 -4.347772,-1.61912 -4.279006,-2.09219 -7.324659,-5.70322 -8.965829,-10.63018 -0.577201,-1.73282 -0.674509,-2.49123 -0.667632,-5.20347 0.0069,-2.70195 0.111742,-3.49037 0.704015,-5.29167 0.917691,-2.791 2.330562,-5.13881 4.300775,-7.14672 1.841439,-1.87667 5.084087,-3.92168 6.218371,-3.92168 1.142112,0 1.874532,0.78914 1.778722,1.91647 -0.0719,0.84549 -0.24459,1.02424 -1.915724,1.98255 -8.463947,4.85364 -10.074697,15.65309 -3.342243,22.40845 2.608392,2.61727 6.302797,4.20781 9.773625,4.20781 5.14946,0 10.04596,-2.91447 12.5938,-7.49602 1.1667,-2.09798 1.93423,-2.61057 3.00718,-2.00835 1.16419,0.65345 1.32092,1.61377 0.52637,3.22531 -2.88982,5.86125 -8.67186,9.59169 -15.29803,9.86994 -1.62729,0.0683 -3.16657,-0.0351 -4.365628,-0.29332 z m 2.910418,-15.77879 c -0.29104,-0.16821 -0.61664,-0.43508 -0.72355,-0.59304 -0.10692,-0.15795 -0.19439,-4.21625 -0.19439,-9.01844 0,-4.80219 0.0875,-8.86226 0.19439,-9.02237 0.64608,-0.9676 2.60567,-1.03145 5.98146,-0.19492 7.33065,1.81656 13.00949,8.80211 13.21353,16.25399 0.0795,2.90225 0.61679,2.74156 -9.41858,2.81675 -6.07283,0.0455 -8.67585,-0.0241 -9.05286,-0.24197 z m 14.68437,-3.93129 c 0,-0.96955 -1.07003,-3.73952 -2.01554,-5.21759 -0.50998,-0.79723 -1.54128,-2.03825 -2.29178,-2.75782 -1.52832,-1.46534 -4.99436,-3.2946 -6.73903,-3.55665 l -1.12448,-0.16889 v 5.94285 c 0,3.26856 0.0794,6.02221 0.17639,6.11923 0.097,0.097 2.83545,0.17639 6.08542,0.17639 5.76322,0 5.90902,-0.0133 5.90902,-0.53752 z"/>
</svg>